<?xml version="1.0" encoding="utf-8"?>
<!-- Generator: Adobe Illustrator 23.1.1, SVG Export Plug-In . SVG Version: 6.00 Build 0)  -->
<svg version="1.1" xmlns="http://www.w3.org/2000/svg" xmlns:xlink="http://www.w3.org/1999/xlink" x="0px" y="0px"
	 viewBox="0 0 583.59 78.35" style="enable-background:new 0 0 583.59 78.35;" xml:space="preserve">
<style type="text/css">
	.st0{fill:#FFFFFF;}
	.st1{fill:#005253;}
	.st2{fill:#041615;}
	.st3{fill:#508E8E;}
	.st4{fill:#8EB2B1;}
	.st5{fill:#6B7574;}
	.st6{fill:#A6ADAC;}
	.st7{fill:#EDF4F3;}
	.st8{fill:#0C3233;}
	.st9{fill:#3B4241;}
	.st10{fill:#EA7363;}
	.st11{fill:#EFA29A;}
	.st12{fill:#F7CDCB;}
	.st13{fill:#E5372E;}
	.st14{fill:#00D061;}
	.st15{fill:#EFC820;}
	.st16{fill:#27D6B4;}
	.st17{fill:#04826A;}
	.st18{fill:#68EAD1;}
	.st19{fill:#06A6B7;}
	.st20{fill:#50D3DD;}
	.st21{fill:#98EFF4;}
	.st22{fill:#FFEBE9;}
	.st23{fill:#CDF7EF;}
	.st24{fill:#06B594;}
	.st25{fill:#D7FFFF;}
	.st26{opacity:0.4;fill:#FFFFFF;}
	.st27{fill:url(#SVGID_1_);}
	.st28{fill:url(#SVGID_2_);}
	.st29{fill:url(#SVGID_3_);}
	.st30{fill:url(#SVGID_4_);}
	.st31{fill:url(#SVGID_5_);}
	.st32{fill:url(#SVGID_6_);}
	.st33{fill:#05A5B5;}
	.st34{fill:#27BAA5;}
	.st35{fill:url(#SVGID_7_);}
	.st36{fill:url(#SVGID_8_);}
	.st37{fill:none;stroke:#8EB2B1;stroke-width:0.5;stroke-linejoin:round;}
	.st38{fill:none;stroke:#8EB2B1;stroke-width:0.5;stroke-linejoin:round;stroke-dasharray:2.002,3.003;}
	.st39{fill:none;stroke:#005253;stroke-width:0.5;stroke-linejoin:round;stroke-miterlimit:10;}
</style>
<g id="Layer_1">
</g>
<g id="Layer_2">
	<g>
		<g>
			<g>
				<g>
					<path class="st1" d="M43.54,22.41c-9.96-9.96-26.11-9.96-36.07,0c-9.96,9.96-9.96,26.11,0,36.07
						c18.03,18.03,54.1,18.03,54.1,18.03S61.57,40.44,43.54,22.41z"/>
					<circle class="st26" cx="25.5" cy="40.44" r="6.38"/>
				</g>
				<g>
					<path class="st10" d="M61.57,0c-14.09,0-25.5,11.42-25.5,25.5c0,25.5,25.5,51.01,25.5,51.01s25.5-25.5,25.5-51.01
						C87.08,11.42,75.66,0,61.57,0z"/>
					<circle class="st26" cx="61.57" cy="25.5" r="6.38"/>
				</g>
				<g>
					<path class="st24" d="M115.67,22.41c-9.96-9.96-26.11-9.96-36.07,0c-18.03,18.03-18.03,54.1-18.03,54.1s36.07,0,54.1-18.03
						C125.63,48.52,125.63,32.37,115.67,22.41z"/>
					<circle class="st26" cx="97.64" cy="40.44" r="6.38"/>
				</g>
			</g>
			<g>
				<radialGradient id="SVGID_1_" cx="62.4092" cy="81.0116" r="70.5154" gradientUnits="userSpaceOnUse">
					<stop  offset="0.3334" style="stop-color:#FFFFFF;stop-opacity:0.25"/>
					<stop  offset="0.6709" style="stop-color:#FFFFFF;stop-opacity:0"/>
				</radialGradient>
				<path class="st27" d="M37.25,17.8c-0.77,2.43-1.19,5.02-1.19,7.7c0,25.5,25.5,51.01,25.5,51.01s0-36.07-18.03-54.1
					C41.64,20.51,39.52,18.98,37.25,17.8z"/>
				<radialGradient id="SVGID_2_" cx="60.4895" cy="77.709" r="70.9707" gradientUnits="userSpaceOnUse">
					<stop  offset="0.3334" style="stop-color:#FFFFFF;stop-opacity:0.25"/>
					<stop  offset="0.7013" style="stop-color:#FFFFFF;stop-opacity:0"/>
				</radialGradient>
				<path class="st28" d="M85.89,17.8c-2.26,1.17-4.39,2.71-6.28,4.61c-18.03,18.03-18.03,54.1-18.03,54.1s25.5-25.5,25.5-51.01
					C87.08,22.82,86.66,20.23,85.89,17.8z"/>
			</g>
		</g>
		<g>
			<g>
				<path class="st1" d="M201.91,63.8h-9.97l-11.21-33.04h-0.15L169.38,63.8h-9.97l-17.1-50.94h13.17l9.1,32.75h0.15l10.99-32.75
					h9.9l10.99,32.75h0.15l9.1-32.75h13.17L201.91,63.8z"/>
				<path class="st1" d="M251.47,46.99c0,10.77-8,17.9-18.92,17.9c-10.84,0-18.85-7.13-18.85-17.9c0-10.77,8-17.9,18.85-17.9
					C243.46,29.09,251.47,36.22,251.47,46.99z M224.69,46.99c0,4.8,3.49,7.86,7.86,7.86c4.44,0,7.86-3.06,7.86-7.86
					s-3.42-7.86-7.86-7.86C228.18,39.13,224.69,42.19,224.69,46.99z"/>
				<path class="st1" d="M289.45,42.99V63.8h-10.92V46.04c0-5.02-2.11-7.28-6.18-7.28c-3.71,0-6.48,2.18-6.48,8.15V63.8h-10.99
					V30.18h10.77v5.09h0.15c2.33-3.93,6.26-6.19,10.99-6.19C284.21,29.09,289.45,33.38,289.45,42.99z"/>
				<path class="st1" d="M294.04,46.99c0-11.79,7.21-17.9,15.94-17.9c5.46,0,8.88,2.26,10.99,5.68h0.15v-21.9h10.99V63.8h-10.99
					v-4.58h-0.15c-2.11,3.42-5.53,5.68-10.99,5.68C301.24,64.89,294.04,58.78,294.04,46.99z M320.82,46.99
					c0-4.8-3.35-7.86-7.79-7.86c-4.37,0-7.71,3.06-7.71,7.86s3.35,7.86,7.71,7.86C317.47,54.85,320.82,51.79,320.82,46.99z"/>
				<path class="st1" d="M370.01,47.13v2.47h-24.09c0.73,4.22,4.08,6.11,8.59,6.11c4.08,0,7.64-1.67,9.75-3.06l4,8.3
					c-3.57,2.18-8.15,3.93-13.9,3.93c-11.28,0-18.77-7.06-18.77-17.76c0-11.35,7.42-17.97,17.76-17.97
					C363.46,29.16,370.01,34.98,370.01,47.13z M345.99,43.13h13.39c-0.15-3.93-2.84-6.19-6.4-6.19
					C349.27,36.95,346.5,38.77,345.99,43.13z"/>
				<path class="st1" d="M396.86,40.15h-0.95c-7.35,0-10.33,2.69-10.33,11.28V63.8h-10.99V30.18h10.77v6.84h0.15
					c1.96-5.53,5.82-7.86,11.13-7.86h0.22V40.15z"/>
				<path class="st1" d="M438.99,29.16c0,9.97-5.89,17.17-18.77,17.17h-6.91V63.8h-11.28V12.86h18.19
					C433.1,12.86,438.99,19.99,438.99,29.16z M426.99,29.38c0-4.44-3.06-6.26-7.71-6.26h-5.97v13.03h5.97
					C423.93,36.15,426.99,33.89,426.99,29.38z"/>
				<path class="st1" d="M465.05,40.15h-0.95c-7.35,0-10.33,2.69-10.33,11.28V63.8h-10.99V30.18h10.77v6.84h0.15
					c1.96-5.53,5.82-7.86,11.13-7.86h0.22V40.15z"/>
				<path class="st1" d="M503.61,46.99c0,10.77-8,17.9-18.92,17.9c-10.84,0-18.85-7.13-18.85-17.9c0-10.77,8-17.9,18.85-17.9
					C495.61,29.09,503.61,36.22,503.61,46.99z M476.84,46.99c0,4.8,3.49,7.86,7.86,7.86c4.44,0,7.86-3.06,7.86-7.86
					s-3.42-7.86-7.86-7.86C480.33,39.13,476.84,42.19,476.84,46.99z"/>
				<path class="st1" d="M522.75,53.32l-7.5,10.48H502.6l13.46-17.61l-12.23-16.01h12.73l6.19,8.88l6.11-8.88h12.73l-12.23,16.01
					l13.46,17.61h-12.66L522.75,53.32z"/>
				<path class="st1" d="M583.59,30.18l-22.34,48.17h-11.06l8.44-17.76l-15.06-30.42h12.66l7.86,18.56l8.37-18.56H583.59z"/>
			</g>
		</g>
	</g>
</g>
<g id="Layer_3">
</g>
<g id="Layer_4">
</g>
<g id="Layer_5">
</g>
<g id="Layer_6">
</g>
<g id="Layer_7">
</g>
<g id="Layer_8">
</g>
<g id="Layer_9">
</g>
<g id="Layer_10">
</g>
<g id="Layer_11">
</g>
<g id="Layer_12">
</g>
<g id="Layer_13">
</g>
<g id="Layer_14">
</g>
</svg>
