<?xml version="1.0" encoding="utf-8"?>
<!-- Generator: Adobe Illustrator 23.1.1, SVG Export Plug-In . SVG Version: 6.00 Build 0)  -->
<svg version="1.1" xmlns="http://www.w3.org/2000/svg" xmlns:xlink="http://www.w3.org/1999/xlink" x="0px" y="0px"
	 viewBox="0 0 292.6 181.68" style="enable-background:new 0 0 292.6 181.68;" xml:space="preserve">
<style type="text/css">
	.st0{fill:#FFFFFF;}
	.st1{fill:#005253;}
	.st2{fill:#041615;}
	.st3{fill:#508E8E;}
	.st4{fill:#8EB2B1;}
	.st5{fill:#6B7574;}
	.st6{fill:#A6ADAC;}
	.st7{fill:#EDF4F3;}
	.st8{fill:#0C3233;}
	.st9{fill:#3B4241;}
	.st10{fill:#EA7363;}
	.st11{fill:#EFA29A;}
	.st12{fill:#F7CDCB;}
	.st13{fill:#E5372E;}
	.st14{fill:#00D061;}
	.st15{fill:#EFC820;}
	.st16{fill:#27D6B4;}
	.st17{fill:#04826A;}
	.st18{fill:#68EAD1;}
	.st19{fill:#06A6B7;}
	.st20{fill:#50D3DD;}
	.st21{fill:#98EFF4;}
	.st22{fill:#FFEBE9;}
	.st23{fill:#CDF7EF;}
	.st24{fill:#06B594;}
	.st25{fill:#D7FFFF;}
	.st26{opacity:0.4;fill:#FFFFFF;}
	.st27{fill:url(#SVGID_1_);}
	.st28{fill:url(#SVGID_2_);}
	.st29{fill:url(#SVGID_3_);}
	.st30{fill:url(#SVGID_4_);}
	.st31{fill:url(#SVGID_5_);}
	.st32{fill:url(#SVGID_6_);}
	.st33{fill:#05A5B5;}
	.st34{fill:#27BAA5;}
	.st35{fill:url(#SVGID_7_);}
	.st36{fill:url(#SVGID_8_);}
	.st37{fill:none;stroke:#8EB2B1;stroke-width:0.5;stroke-linejoin:round;}
	.st38{fill:none;stroke:#8EB2B1;stroke-width:0.5;stroke-linejoin:round;stroke-dasharray:2.002,3.003;}
	.st39{fill:none;stroke:#005253;stroke-width:0.5;stroke-linejoin:round;stroke-miterlimit:10;}
</style>
<g id="Layer_1">
</g>
<g id="Layer_2">
	<g>
		<g>
			<g>
				<path class="st1" d="M103.6,53.07c-23.58-23.58-61.82-23.58-85.41,0c-23.58,23.58-23.58,61.82,0,85.41
					c42.7,42.7,128.11,42.7,128.11,42.7S146.3,95.77,103.6,53.07z"/>
				<circle class="st26" cx="60.89" cy="95.77" r="15.1"/>
			</g>
			<g>
				<path class="st10" d="M146.3,0c-33.35,0-60.39,27.04-60.39,60.39c0,60.39,60.39,120.78,60.39,120.78s60.39-60.39,60.39-120.78
					C206.69,27.04,179.65,0,146.3,0z"/>
				<circle class="st26" cx="146.3" cy="60.39" r="15.1"/>
			</g>
			<g>
				<path class="st24" d="M274.41,53.07c-23.58-23.58-61.82-23.58-85.41,0c-42.7,42.7-42.7,128.11-42.7,128.11s85.41,0,128.11-42.7
					C298,114.89,298,76.65,274.41,53.07z"/>
				<circle class="st26" cx="231.71" cy="95.77" r="15.1"/>
			</g>
		</g>
		<g>
			<radialGradient id="SVGID_1_" cx="148.2831" cy="191.833" r="166.9783" gradientUnits="userSpaceOnUse">
				<stop  offset="0.3334" style="stop-color:#FFFFFF;stop-opacity:0.25"/>
				<stop  offset="0.6709" style="stop-color:#FFFFFF;stop-opacity:0"/>
			</radialGradient>
			<path class="st27" d="M88.72,42.16c-1.82,5.75-2.81,11.88-2.81,18.23c0,60.39,60.39,120.78,60.39,120.78s0-85.41-42.7-128.11
				C99.1,48.57,94.07,44.94,88.72,42.16z"/>
			<radialGradient id="SVGID_2_" cx="143.7373" cy="184.0126" r="168.0566" gradientUnits="userSpaceOnUse">
				<stop  offset="0.3334" style="stop-color:#FFFFFF;stop-opacity:0.25"/>
				<stop  offset="0.7013" style="stop-color:#FFFFFF;stop-opacity:0"/>
			</radialGradient>
			<path class="st28" d="M203.88,42.16c-5.36,2.78-10.39,6.41-14.88,10.91c-42.7,42.7-42.7,128.11-42.7,128.11
				s60.39-60.39,60.39-120.78C206.69,54.04,205.7,47.91,203.88,42.16z"/>
		</g>
	</g>
</g>
<g id="Layer_3">
</g>
<g id="Layer_4">
</g>
<g id="Layer_5">
</g>
<g id="Layer_6">
</g>
<g id="Layer_7">
</g>
<g id="Layer_8">
</g>
<g id="Layer_9">
</g>
<g id="Layer_10">
</g>
<g id="Layer_11">
</g>
<g id="Layer_12">
</g>
<g id="Layer_13">
</g>
<g id="Layer_14">
</g>
</svg>
