<?xml version="1.0" encoding="UTF-8"?>
<svg width="21px" height="24px" viewBox="0 0 21 24" version="1.1" xmlns="http://www.w3.org/2000/svg" xmlns:xlink="http://www.w3.org/1999/xlink">
    <!-- Generator: Sketch 52.6 (67491) - http://www.bohemiancoding.com/sketch -->
    <title>Combined Shape</title>
    <desc>Created with Sketch.</desc>
    <g id="Page-1" stroke="none" stroke-width="1" fill="none" fill-rule="evenodd" fill-opacity="0">
        <g id="filter" transform="translate(2.000000, 2.000000)" fill="#D8D8D8" stroke="#005253" stroke-width="3">
            <path d="M11.9220645,11.9772774 C12.1000946,12.0663194 12.2632119,12.1924676 12.39931,12.354663 L16.8988233,17.7169741 C17.431326,18.3515861 17.34855,19.2977195 16.713938,19.8302222 C16.0793261,20.3627249 15.1331927,20.279949 14.60069,19.645337 L10.1011767,14.2830259 C9.89250643,14.0343423 9.77831822,13.7378216 9.75479443,13.4370998 C8.90931368,13.7994008 7.97808307,14 7,14 C3.13400675,14 8.8817842e-16,10.8659932 8.8817842e-16,7 C8.8817842e-16,3.13400675 3.13400675,0 7,0 C10.8659932,0 14,3.13400675 14,7 C14,8.94703868 13.2050736,10.7084124 11.9220645,11.9772774 Z" id="Combined-Shape"></path>
        </g>
    </g>
</svg>